PathFileType	3	(X/Y/Z)	D:\Jess\Healthy\Labelled\HA03\20250325\SRRun01.trc
DataRate	CameraRate	NumFrames	NumMarkers	Units	OrigDataRate	OrigDataStartFrame	OrigNumFrames
250.0	250.0	6	33	mm	250.0	36563	2501
Frame#	Time	C7			T10			CLAV			LSHO			RSHO			LASIS			RASIS			LPSIS			RPSIS			LILCR			RILCR			LGTR			LTHI			LLTHI			LLEP			LPSH			LLSH			LDSH			LLMAL			LTOE			L5TH			LHEE			RGTR			RTHI			RLTHI			RLEP			RPSH			RLSH			RDSH			RLMAL			RTOE			R5TH			RHEE			
		X1	Y1	Z1	X2	Y2	Z2	X3	Y3	Z3	X4	Y4	Z4	X5	Y5	Z5	X6	Y6	Z6	X7	Y7	Z7	X8	Y8	Z8	X9	Y9	Z9	X10	Y10	Z10	X11	Y11	Z11	X12	Y12	Z12	X13	Y13	Z13	X14	Y14	Z14	X15	Y15	Z15	X16	Y16	Z16	X17	Y17	Z17	X18	Y18	Z18	X19	Y19	Z19	X20	Y20	Z20	X21	Y21	Z21	X22	Y22	Z22	X23	Y23	Z23	X24	Y24	Z24	X25	Y25	Z25	X26	Y26	Z26	X27	Y27	Z27	X28	Y28	Z28	X29	Y29	Z29	X30	Y30	Z30	X31	Y31	Z31	X32	Y32	Z32	X33	Y33	Z33	

1564	146.248	844.4309776733685	1484.476730564582	-254.3196373022627	776.9910753255305	1234.036775815703	-261.7487473850159	970.0947568368371	1400.473752634074	-288.3755607576306	864.5263011231866	1478.440382491898	-416.856602058585	932.8984813220749	1455.046254416155	-121.3797941919245	902.3709585066287	1039.748822468495	-368.1337898862329	912.6212115352639	1034.892455182493	-187.5940680565613	745.963327984587	1093.164227402306	-300.1915083063658	749.7165013505611	1095.025967693922	-252.5352023219465	847.7753477468957	1083.584562497155	-417.1178351769282	857.4520154480607	1078.476135453249	-136.5861359386523	895.4504436674381	969.9799440746489	-426.5794699821321	985.2098191876539	781.0590588523075	-362.8626476930148	936.3989300928999	695.3586381254964	-430.6479754773093	966.3771039633792	550.8559980828225	-395.1752967602419	1033.831383566065	449.9999458135053	-343.0530252072089	982.3250448113857	319.7356315195781	-390.3484139708976	1052.71897962035	255.2443304425833	-335.8243280543654	1026.868485569217	131.5718597597206	-360.3696372936536	1183.274130705839	125.4863406080829	-329.4563222538759	1159.329649329574	88.30039931438212	-364.256985382534	963.5852035484678	102.1209043326977	-308.7717818540402	827.8071639323155	984.8224397977797	-107.5784800058898	874.3743883351483	739.0491150685295	-217.08737694305	789.4903126581565	654.7844909999138	-157.0286591009849	730.2643014751186	556.2995889404265	-175.0038400528113	655.409432362249	449.3780972760083	-226.5892958339931	537.8112303275961	424.8067824809706	-155.1902694850228	471.854330490047	319.4328244062931	-208.7500871080561	382.9212578030939	307.1182445894362	-171.0268804135919	390.842735544845	148.161962820087	-211.8310054899519	350.5982445329395	173.8712737105524	-167.6643804756064	331.4883241852269	366.156918025987	-205.1193317245919	
1565	146.252	844.2219579460854	1482.620002627202	-255.0370136320689	776.3700330702186	1232.222065650431	-261.8620037935843	969.8382546099531	1398.245973608644	-288.4955041669211	864.6922328175351	1476.007394030251	-417.5299966563562	932.4503561860403	1453.34001775955	-121.7624535238521	902.1011218985678	1038.060605411528	-367.9470572548587	912.3632305199581	1033.538909082641	-187.2850425617608	745.461225560736	1090.663953443609	-299.9415787546474	749.2366461273651	1092.532642855271	-252.2939142042249	847.3521439050083	1081.612377914263	-416.8597667295887	856.8201710154036	1076.741248949082	-136.2605225478465	895.0652905146196	967.8927630429996	-426.4559770044766	984.1516842915847	778.7849174542081	-362.9960963331768	935.6475998005665	693.1050051937276	-430.8020293695864	965.9213169028608	548.8903501905753	-394.8027357834194	1033.556914148817	448.1017038854122	-342.6354958497892	981.8925116643009	317.7883605466592	-389.5499720796595	1052.467323726011	253.3525762438674	-335.1694711916094	1026.62797038968	129.5587440254444	-359.3891763147232	1183.003975784539	123.3870143024303	-328.3772435397266	1159.003761111046	86.08314475522332	-363.0318601691022	963.3976332925863	100.4120743585071	-307.6065149649771	828.0177940168476	982.7396439413792	-107.3968059210391	877.6147339559233	737.1955079147745	-217.5578595114089	793.7303130161771	651.8695606776496	-157.6299135602486	735.0554006539094	552.9306060927585	-175.2678858315029	657.7752787659999	447.4163117552401	-226.5873510684498	539.7963056196744	425.9902341036496	-154.6776679550988	470.9054477278348	322.6036651560195	-207.7542193987937	381.739572731148	312.4145232125946	-169.547672858211	386.8944983976135	153.5165270360918	-210.2241918567265	347.3177053165882	179.9256570333071	-165.813743745805	331.000051545999	372.3788470874389	-203.2628733128483	
1566	146.256	843.9744014782535	1480.572608546109	-255.7830793472646	775.7235430339625	1230.211564402012	-261.9431487094527	969.5513689102568	1395.825836469262	-288.6067720181432	864.8607748114312	1473.380198516462	-418.2138366823768	931.9368968507084	1451.475005000787	-122.1652872578833	901.7700794116574	1036.210884359523	-367.7598281164271	912.0650833371084	1031.9764476423	-186.9690032557473	744.924406495583	1087.957013827055	-299.6284658477067	748.7299830036637	1089.815501074197	-251.9884125518467	846.863634678357	1079.485516076647	-416.588962459263	856.176871706093	1074.774485144776	-135.919922146837	894.585786559704	965.675811435858	-426.3289124520466	983.3829855042549	776.6720868529197	-363.1567743285446	935.1421263516752	690.8798129889628	-430.759635899636	965.6491687248684	546.8491263510144	-394.4278595784273	1033.30571816602	445.9813247721048	-342.2435935185553	981.2064008615284	315.7129585142312	-388.7506148816735	1051.777449750404	251.1979812103102	-334.4751892293294	1025.651483043437	127.4125867657301	-358.3773688908168	1181.972427761682	120.8514620826444	-327.2058105402203	1157.847334636028	83.56377599543822	-361.7948877443163	962.3792388340194	98.73169184509433	-306.4361800318882	828.2193728194809	980.4028446180195	-107.2043417056403	880.8489374326069	735.1480960748909	-217.8970054230116	797.9900195232306	648.7770164299658	-158.1260029369973	739.9696167509642	549.3763071101429	-175.4603825374428	660.3653503493308	445.2985378237112	-226.4753789227279	542.0401487543375	427.1237261074417	-154.1509220443575	470.3050530476751	325.731960793068	-206.6636740989991	380.928569567097	317.7502746214446	-168.0535137496912	383.1941792467703	158.9217688729126	-208.4240720226827	344.2642503896271	186.1026237316356	-163.8713855780288	331.0119740459641	378.6325772753728	-201.5158691234139	
1567	146.26	843.6864921542432	1478.332302178303	-256.5547516210952	775.0572622206681	1227.9975161049	-261.9951439737346	969.2335383159365	1393.21397768799	-288.7099246441148	865.0275234574334	1470.556734053047	-418.9073958204689	931.3567907630463	1449.450525700627	-122.5855426955306	901.3819747971626	1034.199413326637	-367.5742930850026	911.7362853539936	1030.204616494432	-186.6495169186023	744.355547185724	1085.044422624374	-299.2545387782172	748.2002072723234	1086.875738171138	-251.6208661819627	846.3128456707302	1077.193916359658	-416.3100780982718	855.5315781877207	1072.576576813586	-135.565277996608	894.0264081602958	963.332764046477	-426.1953720103068	982.9166113923631	774.7089468696337	-363.3349841223776	934.8820333450357	688.6770317517718	-430.5187920857299	965.5496690705169	544.7174757702031	-394.0477815153713	1033.069855557874	443.6347121695114	-341.8606773249338	980.2803186501171	313.5021207422888	-387.943637186968	1050.657024274067	248.7827953737243	-333.721687495232	1023.951837680579	125.1460337823593	-357.3232528903779	1180.19440401965	117.9162773116153	-325.9326231603238	1155.879068154743	80.78985584392389	-360.5477020653638	960.5421246662976	97.0797097629909	-305.2562211248825	828.4168683651326	977.8182560509175	-107.0011802023478	884.0543129997693	732.9159034593986	-218.0987837456038	802.2508770341456	645.5183476773915	-158.4991695160485	744.9883852767166	545.6555257188152	-175.5659303183437	663.1761909372376	443.0361316755946	-226.2374575507139	544.5418463389426	428.212460571799	-153.6019541176083	470.0631745087148	328.8080625197766	-205.4749156804889	380.5021504383681	323.113848783547	-166.5493987237346	379.7490348967611	164.3680329999717	-206.4248451084141	341.444769784451	192.3965498374823	-161.8398134473661	331.5468125345188	384.8979895582015	-199.8974843691164	
1568	146.264	843.3572896692364	1475.898804140487	-257.349374983045	774.3759936871862	1225.573520039907	-262.021672717852	968.884734586806	1390.411193833131	-288.8054815453101	865.1891093317562	1467.536089383239	-419.6110362110753	930.7090406051605	1447.26605690155	-123.0197374198214	900.9406538580356	1032.02695338234	-367.3929241660298	911.3865433137927	1028.224861886543	-186.3304080351931	743.7560284819232	1081.928200389875	-298.8230924535998	747.6497194609652	1083.715834922088	-251.1944668218381	845.7022589254518	1074.727026679195	-416.0280744424409	854.8929106731733	1070.149764691542	-135.1973286216284	893.4021645754832	960.8669090446349	-426.0532205221871	982.754961995993	772.8746753041215	-363.5220812007768	934.8590028218377	686.4865588800196	-430.0856834011945	965.6115112843954	542.4838790740704	-393.6587691276613	1032.839980788842	441.0637096678527	-341.4674483810925	979.128094440917	311.1565335847143	-387.1213184250843	1049.113414866274	246.1184556547209	-332.8886303122853	1021.542773543155	122.7813588656387	-356.2158834233604	1177.68497078191	114.6307012480699	-324.5522706123288	1153.118537414104	77.81975462867068	-359.2937716992449	957.9014489619802	95.46232831376645	-304.0615511207838	828.6146954664674	974.9936863618871	-106.788215122335	887.2126236009968	730.5086452620237	-218.1595677962817	806.4980331099055	642.1044924847926	-158.7346401070737	750.0953901880141	541.7863327728501	-175.5707948082891	666.2038913149407	440.6403527890938	-225.8603680233209	547.2997087633457	429.2598012253607	-153.0234706241316	470.1867718676177	331.8228469860361	-204.1873625778913	380.4711642342222	328.492479500867	-165.0416368218598	376.5691072151371	169.8458240972485	-204.2250154947869	338.8706958285814	198.799853405525	-159.7227987167277	332.6192213351456	391.1520336372469	-198.4252111017759	
1569	146.268	842.9869050913156	1473.274240195553	-258.1648225602777	773.6835558771072	1222.935281877436	-262.0267658721647	968.5054935832629	1387.418805437017	-288.8939363139554	865.3433109510332	1464.318932369941	-420.3261921810893	929.9931205156172	1444.921560449571	-123.4638090339759	900.4493723185294	1029.695553627468	-367.2184104945059	911.0252389666548	1026.040649958093	-186.0156494727055	743.1258829372579	1078.611875732876	-298.3380646054692	747.0795123699816	1080.340011483199	-250.7131632971463	845.0335579925053	1072.074696037974	-415.7479534564497	854.2682877632128	1067.497815910521	-134.8165285157574	892.7276483390671	958.2812879255464	-425.9013047024072	982.8897736576587	771.1404208822398	-363.7110327169732	935.0571117081364	684.2949695293785	-429.4740499628168	965.8235336274432	540.1410755559363	-393.256356027608	1032.605568952922	438.276430842685	-341.0427756329548	977.763097184411	308.6850583962728	-386.2753243718817	1047.153645857414	243.2253008212014	-331.9562660457471	1018.439070244192	120.3492632264534	-355.0450789549211	1174.459636953326	111.0550410357877	-323.0637806524919	1149.586532692504	74.72013557572498	-358.0382246799351	954.4754957458679	93.89093561820486	-302.847175020136	828.8165499286702	971.9384358417672	-106.5670756253121	890.3103808173261	727.9367601598188	-218.0780630656934	810.7201951269874	638.5461268468919	-158.8211017718506	755.2765951959625	537.7860927683124	-175.4634954106311	669.4440792023324	438.1224706806441	-225.3342365895353	550.3113416906027	430.2670592924948	-152.4092799145628	470.6798705440984	334.7678769897523	-202.8034571411634	380.8435055946607	333.872319811195	-163.5376333660848	373.6674623586525	175.3455995077761	-201.8275829208137	336.558069829559	205.3025621545124	-157.5253954005574	334.2356991437649	397.3693266710236	-197.1141023034158	
